HIERARCHY
ROOT Hips
{
  OFFSET 40.9192 92.6879 18.85
  CHANNELS 6 Xposition Yposition Zposition Zrotation Xrotation Yrotation
  JOINT LeftUpLeg
  {
    OFFSET 8.64259 1.95398 -2.38835
    CHANNELS 3 Zrotation Xrotation Yrotation
    JOINT LeftLeg
    {
      OFFSET 43.7702 0 0
      CHANNELS 3 Zrotation Xrotation Yrotation
      JOINT LeftFoot
      {
        OFFSET 40.6238 0 0
        CHANNELS 3 Zrotation Xrotation Yrotation
        JOINT LeftToeBase
        {
          OFFSET 12.7242 0 0
          CHANNELS 3 Zrotation Xrotation Yrotation
          End Site
          {
            OFFSET 0 0 0
          }
        }
      }
    }
  }
  JOINT RightUpLeg
  {
    OFFSET -8.2249 1.95398 -2.59336
    CHANNELS 3 Zrotation Xrotation Yrotation
    JOINT RightLeg
    {
      OFFSET 43.5653 0 0
      CHANNELS 3 Zrotation Xrotation Yrotation
      JOINT RightFoot
      {
        OFFSET 40.6238 0 0
        CHANNELS 3 Zrotation Xrotation Yrotation
        JOINT RightToeBase
        {
          OFFSET 12.7242 0 0
          CHANNELS 3 Zrotation Xrotation Yrotation
          End Site
          {
            OFFSET 0 0 0
          }
        }
      }
    }
  }
  JOINT Spine
  {
    OFFSET 0.165834 0.87714 6.61349
    CHANNELS 3 Zrotation Xrotation Yrotation
    JOINT Spine1
    {
      OFFSET 7.38963 1.71661e-005 0
      CHANNELS 3 Zrotation Xrotation Yrotation
      JOINT Spine2
      {
        OFFSET 11.9445 1.14441e-005 0
        CHANNELS 3 Zrotation Xrotation Yrotation
        JOINT Spine3
        {
          OFFSET 14.7254 4.19617e-005 0
          CHANNELS 3 Zrotation Xrotation Yrotation
          JOINT Spine4
          {
            OFFSET 10.9679 0 0
            CHANNELS 3 Zrotation Xrotation Yrotation
            JOINT RightShoulder
            {
              OFFSET 2.46616 -1.6653 3.69651
              CHANNELS 3 Zrotation Xrotation Yrotation
              JOINT RightArm
              {
                OFFSET 13.0012 0 0
                CHANNELS 3 Zrotation Xrotation Yrotation
                JOINT RightForeArm
                {
                  OFFSET 28.7848 1.52588e-005 0
                  CHANNELS 3 Zrotation Xrotation Yrotation
                  JOINT RightHand
                  {
                    OFFSET 26.5688 1.52588e-005 0
                    CHANNELS 3 Zrotation Xrotation Yrotation
                    End Site
                    {
                      OFFSET 0 0 0
                    }
                  }
                }
              }
            }
            JOINT LeftShoulder
            {
              OFFSET 2.38034 -1.29275 -3.7523
              CHANNELS 3 Zrotation Xrotation Yrotation
              JOINT LeftArm
              {
                OFFSET 16.3182 6.10351e-005 0
                CHANNELS 3 Zrotation Xrotation Yrotation
                JOINT LeftForeArm
                {
                  OFFSET 27.0901 0 0
                  CHANNELS 3 Zrotation Xrotation Yrotation
                  JOINT LeftHand
                  {
                    OFFSET 24.5451 1.52588e-005 0
                    CHANNELS 3 Zrotation Xrotation Yrotation
                    End Site
                    {
                      OFFSET 0 0 0
                    }
                  }
                }
              }
            }
            JOINT Neck
            {
              OFFSET 5.0226 -0.0266342 0
              CHANNELS 3 Zrotation Xrotation Yrotation
              JOINT Head
              {
                OFFSET 6.69363 2.86102e-005 0
                CHANNELS 3 Zrotation Xrotation Yrotation
                End Site
                {
                  OFFSET 0 0 0
                }
              }
            }
          }
        }
      }
    }
  }
}
MOTION
Frames:	6
Frame Time:	0.0416667
-57.6973 53.7067 -4.31079 109.962 -73.2048 118.964 169.005 46.3917 98.2531 -126.91 30.2837 -0.162337 32.552 -12.736 -4.28175 69.4866 42.6306 21.7799 127.489 67.1086 124.73 -114.503 8.51134 -3.65077 83.8233 -12.3515 -6.48987 41.8065 0.514762 -2.74887 0.658042 12.9415 -92.2154 0.979219 0.477787 -4.29653 -10.6988 0.288401 -4.31335 -33.1845 1.74599 -3.95531 -13.1719 1.74599 -3.95529 90.9776 -33.1851 -103.738 12.0146 1.09486 -21.5281 -10.0254 -26.2226 -46.5663 -19.7921 -2.62503 9.89822 -98.5357 -39.8115 62.2078 -33.8522 12.9001 22.2422 0.593329 4.62057 -35.755 18.0391 0.82774 0.727341 10.9579 -7.91012 4.01157 24.2546 -8.81009 -1.16812 
-57.7092 53.6812 -4.41224 111.756 -72.9939 120.855 169.213 46.0536 98.2454 -127.137 30.3478 -0.167805 33.4541 -12.1715 -3.00319 67.2353 42.4949 25.6815 128.362 66.7615 123.926 -114.497 8.31638 -3.63202 83.4787 -12.2701 -6.48646 41.1668 0.478014 -3.19376 0.687888 13.0031 -92.238 0.85668 0.530962 -4.33692 -10.8215 0.339747 -4.35605 -33.3067 1.80883 -3.97788 -13.2941 1.80883 -3.97791 91.103 -33.0247 -103.551 12.2692 1.06876 -21.4557 -10.3363 -26.1109 -46.7455 -19.5697 -2.4726 9.19703 -98.525 -39.6314 62.1478 -34.3148 13.0118 22.2483 -0.139954 3.77611 -35.6652 19.5958 0.768553 0.0508376 11.022 -7.63971 4.019 24.5838 -8.5553 -1.17196 
-57.6691 53.7288 -4.44112 112.517 -72.741 121.999 169.308 45.6366 98.4858 -127.03 29.936 -0.135873 32.6514 -12.4297 -1.91609 67.3991 42.547 25.4631 128.549 66.2571 123.596 -114.405 7.89463 -3.60876 82.9662 -12.054 -6.45574 42.488 0.48457 -3.61354 0.685487 13.0349 -92.2871 0.792065 0.508934 -4.43238 -10.8864 0.313566 -4.45045 -33.3691 1.81644 -4.07562 -13.3565 1.81644 -4.07563 90.9302 -32.8632 -103.933 12.2807 1.12437 -21.1015 -10.5523 -26.0826 -47.3116 -19.6664 -2.5278 9.44436 -98.4351 -39.5679 62.266 -34.5384 12.8706 22.2979 -0.0971755 3.74612 -35.6678 19.3882 0.83331 0.433512 10.7617 -7.68618 4.31446 24.7144 -8.74496 -1.50538 
-57.6133 53.7608 -4.4955 114.319 -72.4008 124.354 168.749 44.9211 99.2274 -127.115 29.9401 -0.185297 33.0838 -12.1815 -2.07828 67.2882 42.8562 26.1873 129.074 65.3146 123.022 -114.195 7.8268 -3.55939 82.7429 -12.0008 -6.43962 42.4173 0.4728 -3.8018 0.7352 13.104 -92.3486 0.654173 0.587749 -4.54682 -11.0247 0.387275 -4.56823 -33.5053 1.92593 -4.16121 -13.4926 1.92593 -4.16121 90.9409 -32.9448 -103.886 12.4389 1.18697 -21.1177 -10.5671 -26.0884 -47.333 -19.5154 -2.49984 9.37596 -98.3831 -39.4054 62.2808 -34.5655 12.998 22.4128 -0.211355 3.63904 -35.7515 19.3806 0.81544 0.342545 10.6288 -7.64419 4.04407 24.801 -8.59637 -1.31857 
-57.5331 53.8145 -4.61105 116.204 -71.8116 126.871 168.011 44.1052 99.9609 -127.233 30.0316 -0.259856 33.0051 -12.2274 -1.44355 66.6957 42.226 26.2488 129.737 64.2652 122.175 -114.008 7.65033 -3.50776 82.6839 -12.0053 -6.43709 43.023 0.498935 -3.53709 0.755995 13.1939 -92.447 0.473249 0.596093 -4.7351 -11.2063 0.387366 -4.75668 -33.6821 1.99032 -4.33842 -13.6695 1.99033 -4.33842 90.871 -32.7591 -104.081 12.5307 1.28478 -20.8924 -10.5783 -25.9927 -47.3908 -19.5928 -2.48211 9.23345 -98.5328 -39.5741 62.1105 -34.441 12.9715 22.494 -0.345221 3.43573 -35.7094 19.5085 0.783919 0.15158 10.5868 -7.59511 4.12327 24.7324 -8.53357 -1.20507 
-57.4711 53.8507 -4.7194 118.199 -70.9862 129.629 167.016 43.0503 100.909 -127.37 30.0318 -0.356535 33.2751 -12.0575 -1.69156 66.7163 42.3429 26.4073 130.388 62.7192 121.247 -113.662 8.24893 -3.41822 83.8648 -12.5582 -6.48799 40.4193 0.493917 -2.37745 0.794689 13.3041 -92.5461 0.252354 0.640846 -4.92223 -11.4278 0.42385 -4.94561 -33.8991 2.08909 -4.50365 -13.8865 2.08909 -4.50366 90.8026 -32.9072 -104.163 12.3476 1.09775 -20.8028 -10.3131 -25.6174 -47.3974 -19.6226 -2.51478 9.38436 -98.4141 -39.3662 62.2136 -34.4971 12.9332 22.437 -0.218603 3.61612 -35.5628 19.3289 0.721238 -0.136355 10.6606 -7.56275 3.89488 24.792 -8.42408 -1.07928 
